<?xml version="1.0" encoding="UTF-8" standalone="no"?>
<!-- Created with Inkscape (http://www.inkscape.org/) -->

<svg
   xmlns:dc="http://purl.org/dc/elements/1.1/"
   xmlns:cc="http://creativecommons.org/ns#"
   xmlns:rdf="http://www.w3.org/1999/02/22-rdf-syntax-ns#"
   xmlns:svg="http://www.w3.org/2000/svg"
   xmlns="http://www.w3.org/2000/svg"
   xmlns:sodipodi="http://sodipodi.sourceforge.net/DTD/sodipodi-0.dtd"
   xmlns:inkscape="http://www.inkscape.org/namespaces/inkscape"
   width="100mm"
   height="100mm"
   viewBox="0 0 100 100"
   version="1.1"
   id="svg8"
   inkscape:version="0.92.3 (2405546, 2018-03-11)"
   sodipodi:docname="B-d-logo.svg">
  <defs
     id="defs2" />
  <sodipodi:namedview
     id="base"
     pagecolor="#ffffff"
     bordercolor="#666666"
     borderopacity="1.0"
     inkscape:pageopacity="0.0"
     inkscape:pageshadow="2"
     inkscape:zoom="1"
     inkscape:cx="165.90034"
     inkscape:cy="216.04929"
     inkscape:document-units="mm"
     inkscape:current-layer="layer1"
     showgrid="false"
     inkscape:window-width="1366"
     inkscape:window-height="703"
     inkscape:window-x="0"
     inkscape:window-y="0"
     inkscape:window-maximized="1" />
  <metadata
     id="metadata5">
    <rdf:RDF>
      <cc:Work
         rdf:about="">
        <dc:format>image/svg+xml</dc:format>
        <dc:type
           rdf:resource="http://purl.org/dc/dcmitype/StillImage" />
        <dc:title></dc:title>
      </cc:Work>
    </rdf:RDF>
  </metadata>
  <g
     inkscape:label="Layer 1"
     inkscape:groupmode="layer"
     id="layer1"
     transform="translate(0,-197)">
    <flowRoot
       xml:space="preserve"
       id="flowRoot4550"
       style="font-style:normal;font-variant:normal;font-weight:normal;font-stretch:normal;font-size:40px;line-height:1.25;font-family:'Abyssinica SIL';-inkscape-font-specification:'Abyssinica SIL';letter-spacing:0px;word-spacing:0px;fill:#000000;fill-opacity:1;stroke:none"><flowRegion
         id="flowRegion4552"
         style="font-style:normal;font-variant:normal;font-weight:normal;font-stretch:normal;font-family:'Abyssinica SIL';-inkscape-font-specification:'Abyssinica SIL'"><rect
           id="rect4554"
           width="124"
           height="163"
           x="166"
           y="614.51971"
           style="font-style:normal;font-variant:normal;font-weight:normal;font-stretch:normal;font-family:'Abyssinica SIL';-inkscape-font-specification:'Abyssinica SIL'" /></flowRegion><flowPara
         id="flowPara4556" /></flowRoot>    <flowRoot
       xml:space="preserve"
       id="flowRoot4558"
       style="font-style:normal;font-weight:normal;font-size:40px;line-height:1.25;font-family:sans-serif;letter-spacing:0px;word-spacing:0px;fill:#000000;fill-opacity:1;stroke:none"><flowRegion
         id="flowRegion4560"><rect
           id="rect4562"
           width="199"
           height="82"
           x="148"
           y="764.51971" /></flowRegion><flowPara
         id="flowPara4564" /></flowRoot>    <flowRoot
       xml:space="preserve"
       id="flowRoot4566"
       style="font-style:normal;font-weight:normal;font-size:40px;line-height:1.25;font-family:sans-serif;letter-spacing:0px;word-spacing:0px;fill:#000000;fill-opacity:1;stroke:none"><flowRegion
         id="flowRegion4568"><rect
           id="rect4570"
           width="188"
           height="101"
           x="268"
           y="852.51971" /></flowRegion><flowPara
         id="flowPara4572" /></flowRoot>    <flowRoot
       xml:space="preserve"
       id="flowRoot4574"
       style="font-style:normal;font-weight:normal;font-size:40px;line-height:1.25;font-family:sans-serif;letter-spacing:0px;word-spacing:0px;fill:#000000;fill-opacity:1;stroke:none"
       transform="scale(0.26458333)"><flowRegion
         id="flowRegion4576"><rect
           id="rect4578"
           width="240"
           height="83"
           x="127"
           y="758.51971" /></flowRegion><flowPara
         id="flowPara4580" /><flowPara
         id="flowPara4582" /></flowRoot>    <rect
       id="rect3736"
       width="100"
       height="100"
       x="0"
       y="197"
       style="fill:#1d7172;fill-opacity:1;stroke-width:0.26458332" />
    <g
       id="g3742"
       transform="matrix(0.99708977,0,0,1.0259529,-53.727068,62.349826)">
      <path
         id="flowRoot4542"
         transform="scale(0.26458333)"
         d="m 304.99219,569.71875 c -17.01649,0 -25.52539,6.24538 -25.52539,18.73633 0,12.49094 8.5089,18.73633 25.52539,18.73633 h 5.80078 v 79.41211 h 163.75195 c -5.61736,-4.64305 -12.37112,-8.88053 -20.27344,-12.70899 16.24301,-12.24113 24.36524,-26.35729 24.36524,-42.3457 0,-17.73715 -7.21802,-32.47531 -21.65625,-44.2168 -14.18041,-11.74149 -32.22936,-17.61328 -54.14453,-17.61328 z m 44.47461,37.47266 h 51.43554 c 12.11781,0 21.65785,2.12417 28.61914,6.37109 6.96129,4.24692 10.44141,10.11871 10.44141,17.61328 0,8.49385 -4.38237,15.48836 -13.14844,20.98438 -8.50824,5.24619 -19.7239,7.86914 -33.64648,7.86914 H 349.4668 Z"
         style="font-style:normal;font-variant:normal;font-weight:bold;font-stretch:normal;font-size:266.66665649px;font-family:'Tlwg Mono';-inkscape-font-specification:'Tlwg Mono Bold';letter-spacing:0px;word-spacing:0px;fill:#102133;fill-opacity:1;stroke:none;stroke-width:1.42757261"
         inkscape:connector-curvature="0" />
      <path
         inkscape:connector-curvature="0"
         id="flowRoot4542-8"
         d="m 85.308485,182.43537 v 16.86977 h -1.534789 c -4.50228,0 -6.753593,1.65243 -6.753593,4.95732 0,3.3049 2.251313,4.95784 6.753593,4.95784 h 30.185744 c 6.07125,0 10.9485,-1.45422 14.63218,-4.36253 3.68368,-2.90831 5.52576,-6.74205 5.52576,-11.5011 0,-4.27885 -1.79269,-7.91876 -5.3728,-10.9213 z m 10.232451,2.79104 h 13.813614 c 5.04801,0 8.73165,0.92532 11.05101,2.77606 2.31935,1.85075 3.47937,3.83386 3.47937,5.94899 0,3.56929 -3.47902,5.35368 -10.43709,5.35368 H 95.540936 Z"
         style="font-style:normal;font-variant:normal;font-weight:bold;font-stretch:normal;font-size:266.66665649px;font-family:'Tlwg Mono';-inkscape-font-specification:'Tlwg Mono Bold';letter-spacing:0px;word-spacing:0px;fill:#102133;fill-opacity:1;stroke:none;stroke-width:0.37771192" />
    </g>
  </g>
</svg>
